<mxfile host="app.diagrams.net" agent="Mozilla/5.0 (X11; Linux x86_64) AppleWebKit/537.36 (KHTML, like Gecko) Chrome/131.0.0.0 Safari/537.36" version="24.8.6">
  <diagram name="Pagina-1" id="rx-iDpGyXoqZFEGIbf5L">
    <mxGraphModel dx="1251" dy="2045" grid="1" gridSize="10" guides="1" tooltips="1" connect="1" arrows="1" fold="1" page="1" pageScale="1" pageWidth="827" pageHeight="1169" math="0" shadow="0">
      <root>
        <mxCell id="0" />
        <mxCell id="1" parent="0" />
        <mxCell id="3m38V3VpkpyMnpUfA3VL-22" style="edgeStyle=orthogonalEdgeStyle;rounded=0;orthogonalLoop=1;jettySize=auto;html=1;exitX=1;exitY=0.5;exitDx=0;exitDy=0;entryX=0;entryY=0.5;entryDx=0;entryDy=0;" parent="1" source="3m38V3VpkpyMnpUfA3VL-15" target="3m38V3VpkpyMnpUfA3VL-19" edge="1">
          <mxGeometry relative="1" as="geometry">
            <Array as="points">
              <mxPoint x="760" y="265" />
              <mxPoint x="760" y="340" />
            </Array>
          </mxGeometry>
        </mxCell>
        <mxCell id="3m38V3VpkpyMnpUfA3VL-15" value="" style="rounded=0;whiteSpace=wrap;html=1;" parent="1" vertex="1">
          <mxGeometry x="600" y="235" width="120" height="60" as="geometry" />
        </mxCell>
        <mxCell id="3m38V3VpkpyMnpUfA3VL-16" value="Nginx proxy/gateway" style="text;html=1;align=center;verticalAlign=middle;whiteSpace=wrap;rounded=0;" parent="1" vertex="1">
          <mxGeometry x="630" y="250" width="60" height="30" as="geometry" />
        </mxCell>
        <mxCell id="3m38V3VpkpyMnpUfA3VL-54" style="edgeStyle=orthogonalEdgeStyle;rounded=0;orthogonalLoop=1;jettySize=auto;html=1;exitX=1;exitY=1;exitDx=0;exitDy=0;endArrow=none;endFill=0;" parent="1" source="3m38V3VpkpyMnpUfA3VL-17" edge="1">
          <mxGeometry relative="1" as="geometry">
            <mxPoint x="980" y="190" as="targetPoint" />
          </mxGeometry>
        </mxCell>
        <mxCell id="3m38V3VpkpyMnpUfA3VL-17" value="" style="rounded=0;whiteSpace=wrap;html=1;" parent="1" vertex="1">
          <mxGeometry x="840" y="130" width="120" height="60" as="geometry" />
        </mxCell>
        <mxCell id="3m38V3VpkpyMnpUfA3VL-18" value="Post service + mysql database" style="text;html=1;align=center;verticalAlign=middle;whiteSpace=wrap;rounded=0;" parent="1" vertex="1">
          <mxGeometry x="870" y="145" width="60" height="30" as="geometry" />
        </mxCell>
        <mxCell id="3m38V3VpkpyMnpUfA3VL-55" style="edgeStyle=orthogonalEdgeStyle;rounded=0;orthogonalLoop=1;jettySize=auto;html=1;exitX=1;exitY=0;exitDx=0;exitDy=0;entryX=1;entryY=0.5;entryDx=0;entryDy=0;dashed=1;" parent="1" source="3m38V3VpkpyMnpUfA3VL-19" target="3m38V3VpkpyMnpUfA3VL-37" edge="1">
          <mxGeometry relative="1" as="geometry">
            <Array as="points">
              <mxPoint x="980" y="310" />
              <mxPoint x="980" y="250" />
            </Array>
          </mxGeometry>
        </mxCell>
        <mxCell id="3m38V3VpkpyMnpUfA3VL-19" value="" style="rounded=0;whiteSpace=wrap;html=1;" parent="1" vertex="1">
          <mxGeometry x="840" y="310" width="120" height="60" as="geometry" />
        </mxCell>
        <mxCell id="3m38V3VpkpyMnpUfA3VL-20" value="Notification service + mysql database" style="text;html=1;align=center;verticalAlign=middle;whiteSpace=wrap;rounded=0;" parent="1" vertex="1">
          <mxGeometry x="870" y="325" width="60" height="30" as="geometry" />
        </mxCell>
        <mxCell id="3m38V3VpkpyMnpUfA3VL-26" value="" style="rounded=0;whiteSpace=wrap;html=1;" parent="1" vertex="1">
          <mxGeometry x="1080" y="85" width="120" height="395" as="geometry" />
        </mxCell>
        <mxCell id="3m38V3VpkpyMnpUfA3VL-27" value="message bus" style="text;html=1;align=center;verticalAlign=middle;whiteSpace=wrap;rounded=0;" parent="1" vertex="1">
          <mxGeometry x="1100" y="268" width="60" height="30" as="geometry" />
        </mxCell>
        <mxCell id="3m38V3VpkpyMnpUfA3VL-29" style="edgeStyle=orthogonalEdgeStyle;rounded=0;orthogonalLoop=1;jettySize=auto;html=1;exitX=1;exitY=0.5;exitDx=0;exitDy=0;entryX=0.004;entryY=0.191;entryDx=0;entryDy=0;entryPerimeter=0;" parent="1" source="3m38V3VpkpyMnpUfA3VL-17" target="3m38V3VpkpyMnpUfA3VL-26" edge="1">
          <mxGeometry relative="1" as="geometry" />
        </mxCell>
        <mxCell id="3m38V3VpkpyMnpUfA3VL-30" style="edgeStyle=orthogonalEdgeStyle;rounded=0;orthogonalLoop=1;jettySize=auto;html=1;exitX=1;exitY=0.5;exitDx=0;exitDy=0;entryX=0.008;entryY=0.646;entryDx=0;entryDy=0;entryPerimeter=0;startArrow=classic;startFill=1;endArrow=none;endFill=0;" parent="1" source="3m38V3VpkpyMnpUfA3VL-19" target="3m38V3VpkpyMnpUfA3VL-26" edge="1">
          <mxGeometry relative="1" as="geometry" />
        </mxCell>
        <mxCell id="3m38V3VpkpyMnpUfA3VL-31" value="" style="rounded=0;whiteSpace=wrap;html=1;" parent="1" vertex="1">
          <mxGeometry x="600" y="400" width="120" height="60" as="geometry" />
        </mxCell>
        <mxCell id="3m38V3VpkpyMnpUfA3VL-32" value="Central config&lt;div&gt;service&lt;/div&gt;" style="text;html=1;align=center;verticalAlign=middle;whiteSpace=wrap;rounded=0;" parent="1" vertex="1">
          <mxGeometry x="630" y="415" width="60" height="30" as="geometry" />
        </mxCell>
        <mxCell id="3m38V3VpkpyMnpUfA3VL-33" value="" style="rounded=0;whiteSpace=wrap;html=1;" parent="1" vertex="1">
          <mxGeometry x="280" y="235" width="120" height="60" as="geometry" />
        </mxCell>
        <mxCell id="3m38V3VpkpyMnpUfA3VL-34" value="Angular webapp&lt;div&gt;in browser&lt;/div&gt;" style="text;html=1;align=center;verticalAlign=middle;whiteSpace=wrap;rounded=0;" parent="1" vertex="1">
          <mxGeometry x="310" y="240" width="60" height="50" as="geometry" />
        </mxCell>
        <mxCell id="3m38V3VpkpyMnpUfA3VL-35" value="" style="endArrow=classic;startArrow=classic;html=1;rounded=0;exitX=1;exitY=0.5;exitDx=0;exitDy=0;entryX=0;entryY=0.5;entryDx=0;entryDy=0;" parent="1" source="3m38V3VpkpyMnpUfA3VL-33" target="3m38V3VpkpyMnpUfA3VL-15" edge="1">
          <mxGeometry width="50" height="50" relative="1" as="geometry">
            <mxPoint x="430" y="290" as="sourcePoint" />
            <mxPoint x="480" y="240" as="targetPoint" />
          </mxGeometry>
        </mxCell>
        <mxCell id="3m38V3VpkpyMnpUfA3VL-37" value="" style="rounded=0;whiteSpace=wrap;html=1;" parent="1" vertex="1">
          <mxGeometry x="840" y="210" width="120" height="80" as="geometry" />
        </mxCell>
        <mxCell id="3m38V3VpkpyMnpUfA3VL-39" value="Logging service (log to file, no database)" style="text;html=1;align=center;verticalAlign=middle;whiteSpace=wrap;rounded=0;" parent="1" vertex="1">
          <mxGeometry x="870" y="238" width="60" height="30" as="geometry" />
        </mxCell>
        <mxCell id="3m38V3VpkpyMnpUfA3VL-42" value="Event for notifs" style="text;html=1;align=center;verticalAlign=middle;whiteSpace=wrap;rounded=0;" parent="1" vertex="1">
          <mxGeometry x="1000" y="115" width="60" height="30" as="geometry" />
        </mxCell>
        <mxCell id="3m38V3VpkpyMnpUfA3VL-43" value="Read+&lt;span style=&quot;background-color: initial;&quot;&gt;mark as read notifs&lt;/span&gt;" style="text;html=1;align=center;verticalAlign=middle;whiteSpace=wrap;rounded=0;" parent="1" vertex="1">
          <mxGeometry x="770" y="350" width="60" height="30" as="geometry" />
        </mxCell>
        <mxCell id="3m38V3VpkpyMnpUfA3VL-44" value="" style="edgeStyle=orthogonalEdgeStyle;rounded=0;orthogonalLoop=1;jettySize=auto;html=1;exitX=1;exitY=0.5;exitDx=0;exitDy=0;entryX=0;entryY=0.5;entryDx=0;entryDy=0;startArrow=classic;startFill=1;" parent="1" source="3m38V3VpkpyMnpUfA3VL-15" target="3m38V3VpkpyMnpUfA3VL-17" edge="1">
          <mxGeometry relative="1" as="geometry">
            <mxPoint x="720" y="265" as="sourcePoint" />
            <mxPoint x="840" y="160" as="targetPoint" />
            <Array as="points">
              <mxPoint x="760" y="265" />
              <mxPoint x="760" y="160" />
            </Array>
          </mxGeometry>
        </mxCell>
        <mxCell id="3m38V3VpkpyMnpUfA3VL-41" value="Read+&lt;div&gt;make+&lt;/div&gt;&lt;div&gt;filter posts&lt;br&gt;&lt;/div&gt;" style="text;html=1;align=center;verticalAlign=middle;whiteSpace=wrap;rounded=0;" parent="1" vertex="1">
          <mxGeometry x="767" y="115" width="60" height="30" as="geometry" />
        </mxCell>
        <mxCell id="3m38V3VpkpyMnpUfA3VL-52" style="edgeStyle=orthogonalEdgeStyle;rounded=0;orthogonalLoop=1;jettySize=auto;html=1;exitX=0.5;exitY=1;exitDx=0;exitDy=0;entryX=0.5;entryY=0;entryDx=0;entryDy=0;startArrow=classic;startFill=1;dashed=1;" parent="1" source="3m38V3VpkpyMnpUfA3VL-47" target="3m38V3VpkpyMnpUfA3VL-17" edge="1">
          <mxGeometry relative="1" as="geometry" />
        </mxCell>
        <mxCell id="3m38V3VpkpyMnpUfA3VL-53" style="edgeStyle=orthogonalEdgeStyle;rounded=0;orthogonalLoop=1;jettySize=auto;html=1;exitX=1;exitY=1;exitDx=0;exitDy=0;entryX=1;entryY=0.5;entryDx=0;entryDy=0;dashed=1;" parent="1" source="3m38V3VpkpyMnpUfA3VL-47" target="3m38V3VpkpyMnpUfA3VL-37" edge="1">
          <mxGeometry relative="1" as="geometry">
            <Array as="points">
              <mxPoint x="980" y="60" />
              <mxPoint x="980" y="250" />
            </Array>
          </mxGeometry>
        </mxCell>
        <mxCell id="3m38V3VpkpyMnpUfA3VL-47" value="" style="rounded=0;whiteSpace=wrap;html=1;" parent="1" vertex="1">
          <mxGeometry x="840" width="120" height="60" as="geometry" />
        </mxCell>
        <mxCell id="3m38V3VpkpyMnpUfA3VL-51" value="Review service + mysql database" style="text;html=1;align=center;verticalAlign=middle;whiteSpace=wrap;rounded=0;" parent="1" vertex="1">
          <mxGeometry x="870" y="15" width="60" height="30" as="geometry" />
        </mxCell>
        <mxCell id="3m38V3VpkpyMnpUfA3VL-56" value="" style="rounded=0;whiteSpace=wrap;html=1;" parent="1" vertex="1">
          <mxGeometry x="600" y="45" width="120" height="60" as="geometry" />
        </mxCell>
        <mxCell id="3m38V3VpkpyMnpUfA3VL-57" value="Discovery service" style="text;html=1;align=center;verticalAlign=middle;whiteSpace=wrap;rounded=0;" parent="1" vertex="1">
          <mxGeometry x="630" y="60" width="60" height="30" as="geometry" />
        </mxCell>
        <mxCell id="FF4pbCyHfgO9_Jb1nytP-1" value="" style="rounded=0;whiteSpace=wrap;html=1;" parent="1" vertex="1">
          <mxGeometry x="740" y="210" width="120" height="60" as="geometry" />
        </mxCell>
        <mxCell id="FF4pbCyHfgO9_Jb1nytP-2" value="" style="rounded=0;whiteSpace=wrap;html=1;fillColor=none;" parent="1" vertex="1">
          <mxGeometry x="500" y="-100" width="790" height="640" as="geometry" />
        </mxCell>
        <mxCell id="FF4pbCyHfgO9_Jb1nytP-3" value="Backend" style="text;html=1;align=center;verticalAlign=middle;whiteSpace=wrap;rounded=0;" parent="1" vertex="1">
          <mxGeometry x="880" y="-70" width="60" height="30" as="geometry" />
        </mxCell>
      </root>
    </mxGraphModel>
  </diagram>
</mxfile>
